<svg id="图层_1" data-name="图层 1" xmlns="http://www.w3.org/2000/svg" viewBox="0 0 841.8898 595.2756"><defs><style>.cls-1,.cls-3,.cls-5{font-size:12px;}.cls-1,.cls-3,.cls-5,.cls-6,.cls-9{fill:#231815;}.cls-1{font-family:NSimSun;}.cls-2,.cls-4,.cls-7,.cls-8{fill:none;stroke:#231815;stroke-miterlimit:10;}.cls-2,.cls-7,.cls-8{stroke-width:0.5px;}.cls-3,.cls-6{font-family:Consolas;}.cls-5{font-family:Consolas-Bold, Consolas;font-weight:700;}.cls-6{font-size:6px;}.cls-7{stroke-dasharray:0.9339 0.9339;}.cls-8{stroke-dasharray:1.0413 1.0413;}</style></defs><title>DectoStr</title><text class="cls-1" transform="translate(64.9999 38.3124)">整数转字符串</text><polyline class="cls-2" points="171 14 171 54 31 54"/><polyline class="cls-2" points="401 14 401 54 261 54"/><text class="cls-3" transform="translate(196.207 27.1011)">dexnab</text><text class="cls-3" transform="translate(294.713 31.101)">CommonCtil:<tspan x="0" y="12">ftu_string</tspan></text><polyline class="cls-2" points="261 14 261 34 171 34"/><polyline class="cls-2" points="261 34 261 54 171 54"/><text class="cls-3" transform="translate(183.0117 47.1011)">2021-10-16</text><text class="cls-3" transform="translate(41.1035 576.6011)">1/1</text><text class="cls-3" transform="translate(781.1035 576.6011)">1/1</text><polyline class="cls-2" points="71 581 71 566 31 566"/><polyline class="cls-2" points="771 581 771 566 811 566"/><ellipse class="cls-4" cx="21.2598" cy="90.9552" rx="8.5039" ry="8.396"/><ellipse class="cls-4" cx="21.2598" cy="144.4097" rx="8.5039" ry="8.396"/><ellipse class="cls-4" cx="21.2598" cy="197.8641" rx="8.5039" ry="8.396"/><ellipse class="cls-4" cx="21.2598" cy="396.2893" rx="8.5039" ry="8.396"/><ellipse class="cls-4" cx="21.2598" cy="449.7438" rx="8.5039" ry="8.396"/><ellipse class="cls-4" cx="21.2598" cy="504.3177" rx="8.5039" ry="8.396"/><ellipse class="cls-4" cx="820.6299" cy="90.9552" rx="8.5039" ry="8.396"/><ellipse class="cls-4" cx="820.6299" cy="144.4097" rx="8.5039" ry="8.396"/><ellipse class="cls-4" cx="820.6299" cy="197.8641" rx="8.5039" ry="8.396"/><ellipse class="cls-4" cx="820.6299" cy="396.2893" rx="8.5039" ry="8.396"/><ellipse class="cls-4" cx="820.6299" cy="449.7438" rx="8.5039" ry="8.396"/><ellipse class="cls-4" cx="820.6299" cy="504.3177" rx="8.5039" ry="8.396"/><text class="cls-5" transform="translate(55.1947 195.6864)">PROCESS</text><rect class="cls-2" x="30.9999" y="14.1732" width="779.89" height="566.9291"/><text class="cls-5" transform="translate(55.1947 134.4098)">INPUT</text><text class="cls-3" transform="translate(89.237 211.5162)">1234561234</text><text class="cls-3" transform="translate(92.471 243.1757)">123456123</text><text class="cls-6" transform="translate(123.8327 223.2607)">/10</text><text class="cls-3" transform="translate(55.1944 150.4951)">number:</text><text class="cls-3" transform="translate(101.237 150.4949)">1234561234</text><text class="cls-3" transform="translate(87.7051 165.3035)">8</text><text class="cls-3" transform="translate(46.3192 211.516)">N=0:</text><text class="cls-3" transform="translate(46.3194 243.1756)">N=1:</text><text class="cls-3" transform="translate(113.9178 274.0694)">123</text><text class="cls-3" transform="translate(46.3194 274.0692)">N=7:</text><text class="cls-3" transform="translate(188.0768 173.3034)">str.data:</text><text class="cls-3" transform="translate(188.0771 150.4951)">str.size:</text><text class="cls-3" transform="translate(248.1835 150.4951)">7</text><text class="cls-3" transform="translate(251.3623 173.3032)">3</text><text class="cls-3" transform="translate(251.3621 163.5798)">0</text><text class="cls-3" transform="translate(262.828 163.58)">1</text><text class="cls-3" transform="translate(274.2934 163.5798)">2</text><text class="cls-3" transform="translate(285.7593 163.58)">3</text><text class="cls-3" transform="translate(297.2239 163.5797)">4</text><text class="cls-3" transform="translate(308.6898 163.5799)">5</text><text class="cls-3" transform="translate(320.1552 163.5797)">6</text><text class="cls-3" transform="translate(331.6211 163.5799)">7</text><text class="cls-6" transform="translate(336.7432 182.259) rotate(90)">(keep-N-1)</text><text class="cls-6" transform="translate(325.3389 182.2591) rotate(90)">(keep-N-1)</text><text class="cls-6" transform="translate(256.5303 182.2591) rotate(90)">(keep-N-1)</text><text class="cls-3" transform="translate(262.8279 173.3034)">4</text><text class="cls-3" transform="translate(274.2933 173.3035)">5</text><text class="cls-3" transform="translate(285.7586 173.3036)">6</text><text class="cls-3" transform="translate(297.2238 173.3038)">1</text><text class="cls-3" transform="translate(308.6891 173.3039)">2</text><text class="cls-3" transform="translate(320.1547 173.3038)">3</text><text class="cls-3" transform="translate(55.1944 165.3036)">keep:</text><text class="cls-5" transform="translate(188.0771 134.4097)">OUTPUT</text><line class="cls-2" x1="148.301" y1="213.0586" x2="155.535" y2="213.0586"/><line class="cls-2" x1="144.8754" y1="244.4203" x2="152.1095" y2="244.4203"/><line class="cls-2" x1="126.5651" y1="275.8671" x2="133.7991" y2="275.8671"/><polyline class="cls-2" points="260.457 175.871 271.796 175.871 271.796 164.533 260.457 164.533"/><polyline class="cls-2" points="271.923 175.872 283.261 175.872 283.261 164.533 271.923 164.533"/><polyline class="cls-2" points="283.388 175.872 294.727 175.872 294.727 164.533 283.388 164.533"/><polyline class="cls-2" points="294.853 175.872 306.192 175.872 306.192 164.533 294.853 164.533"/><polyline class="cls-2" points="306.319 175.872 317.657 175.872 317.657 164.533 306.319 164.533"/><polyline class="cls-2" points="317.785 175.872 329.123 175.872 329.123 164.533 317.785 164.533"/><rect class="cls-2" x="248.992" y="164.5329" width="11.3386" height="11.3386"/><polyline class="cls-2" points="151.918 213.059 151.918 221.059 334.854 221.059 334.92 221.059 334.92 177.399"/><polyline class="cls-2" points="338.928 181.408 334.92 177.399 330.911 181.408"/><polyline class="cls-2" points="327.463 181.408 323.454 177.399 319.445 181.408"/><polyline class="cls-2" points="258.67 181.408 254.661 177.399 250.653 181.408"/><polyline class="cls-2" points="118.547 228.603 122.556 232.612 126.565 228.603"/><line class="cls-2" x1="330.6676" y1="179.4034" x2="339.1716" y2="179.4034"/><line class="cls-2" x1="122.5563" y1="213.9097" x2="122.5563" y2="232.6118"/><text class="cls-6" transform="translate(56.4711 223.2606)">+1</text><polyline class="cls-2" points="51.186 228.603 55.195 232.612 59.203 228.603"/><line class="cls-2" x1="55.1947" y1="213.9096" x2="55.1947" y2="232.6117"/><line class="cls-2" x1="118.5475" y1="259.9222" x2="118.9011" y2="260.2757"/><line class="cls-7" x1="119.5614" y1="260.9361" x2="121.8726" y2="263.2472"/><polyline class="cls-2" points="122.203 263.577 122.556 263.931 122.91 263.577"/><line class="cls-7" x1="123.5702" y1="262.9171" x2="125.8814" y2="260.6059"/><line class="cls-2" x1="126.2115" y1="260.2757" x2="126.5651" y2="259.9222"/><line class="cls-2" x1="122.5563" y1="245.2288" x2="122.5563" y2="245.7288"/><line class="cls-8" x1="122.5563" y1="246.7701" x2="122.5563" y2="262.9103"/><line class="cls-2" x1="122.5563" y1="263.431" x2="122.5563" y2="263.931"/><line class="cls-2" x1="51.1859" y1="259.9221" x2="51.5394" y2="260.2757"/><line class="cls-7" x1="52.1998" y1="260.936" x2="54.5109" y2="263.2472"/><polyline class="cls-2" points="54.841 263.577 55.195 263.931 55.548 263.577"/><line class="cls-7" x1="56.2085" y1="262.917" x2="58.5197" y2="260.6058"/><line class="cls-2" x1="58.8499" y1="260.2757" x2="59.2034" y2="259.9221"/><line class="cls-2" x1="55.1947" y1="245.2288" x2="55.1947" y2="245.7288"/><line class="cls-8" x1="55.1947" y1="246.7701" x2="55.1947" y2="262.9102"/><line class="cls-2" x1="55.1947" y1="263.4309" x2="55.1947" y2="263.9309"/><polyline class="cls-2" points="148.492 244.42 148.492 253.484 323.454 253.484 323.454 177.399"/><polyline class="cls-2" points="130.182 275.867 130.182 281.825 254.661 281.825 254.661 177.399"/><text class="cls-1" transform="translate(41.6165 87.2468)">注意：这里以十进制举例。如果要应用于其他的进制，请将每次更<tspan x="0" y="12">新数据的“/10”和提取末位的“%10”更新为对应进制的替换。</tspan></text><rect class="cls-9" width="17.0079" height="17.0079"/><rect class="cls-9" x="824.8819" y="578.2677" width="17.0079" height="17.0079"/><path class="cls-9" d="M840.89,1V16.0079H825.8819V1H840.89m1-1H824.8819V17.0079H841.89V0Z" transform="translate(0 0)"/><path class="cls-9" d="M16.0079,579.2677v15.0079H1V579.2677H16.0079m1-1H0v17.0079H17.0079V578.2677Z" transform="translate(0 0)"/></svg>